<?xml version="1.0" standalone="no"?>
<svg
  width="600"
  height="600"
  viewBox="0 0 600 600"
  xmlns="http://www.w3.org/2000/svg"
>
  <g transform="translate(300,300)">
    <path d="M140.8,-165.9C174.4,-139.5,188.2,-87.6,183.9,-42.7C179.6,2.3,157.4,40.1,129.5,61.9C101.6,83.6,68.1,89.3,30.3,118.2C-7.5,147.2,-49.6,199.5,-79.7,197.8C-109.9,196.1,-128.1,140.3,-146.3,92.4C-164.5,44.5,-182.7,4.6,-174.6,-28.9C-166.5,-62.4,-132.1,-89.4,-98.6,-115.9C-65.1,-142.3,-32.6,-168.1,10.5,-180.7C53.6,-193.2,107.1,-192.3,140.8,-165.9Z" fill="#dfcec5" />
  </g>
</svg>
  