<?xml version="1.0" standalone="no"?>
<svg
  width="600"
  height="600"
  viewBox="0 0 600 600"
  xmlns="http://www.w3.org/2000/svg"
>
  <g transform="translate(300,300)">
    <path d="M78.8,-116.9C108,-104,141.3,-91.9,156.9,-68.5C172.5,-45.1,170.4,-10.5,153.5,13.4C136.6,37.3,105,50.4,84.9,73.4C64.7,96.4,56.2,129.3,37.3,141.4C18.4,153.5,-10.8,144.9,-43.3,139.1C-75.8,133.4,-111.6,130.5,-150.8,114.4C-190,98.3,-232.6,68.9,-230.9,37.2C-229.2,5.5,-183.3,-28.6,-156.8,-65.4C-130.3,-102.1,-123.3,-141.5,-100.4,-157.2C-77.5,-172.9,-38.7,-165,-6.9,-154.2C24.9,-143.4,49.7,-129.7,78.8,-116.9Z" fill="#f9f0eb" />
  </g>
</svg>
  